<svg width="16" height="16" viewBox="0 0 16 16" fill="none" xmlns="http://www.w3.org/2000/svg">
<path d="M9.70679 9.20676C9.7997 9.11422 9.87344 9.00413 9.92377 8.88282C9.97409 8.76152 10 8.63141 10 8.5C10 8.36859 9.97409 8.23848 9.92377 8.11718C9.87344 7.99587 9.7997 7.88578 9.70679 7.79324L6.73304 4.80693C6.64061 4.7115 6.53038 4.63529 6.40863 4.58264C6.28687 4.52999 6.15599 4.50195 6.02344 4.5001C5.89089 4.49825 5.75928 4.52264 5.63612 4.57187C5.51296 4.6211 5.40066 4.6942 5.30563 4.78702C5.21061 4.87983 5.13472 4.99053 5.08229 5.1128C5.02987 5.23506 5.00194 5.3665 5.0001 5.49961C4.99826 5.63272 5.02254 5.76488 5.07156 5.88856C5.12059 6.01225 5.19339 6.12502 5.28581 6.22045L7.60534 8.5L5.28581 10.7796C5.19339 10.875 5.12059 10.9878 5.07156 11.1114C5.02254 11.2351 4.99826 11.3673 5.0001 11.5004C5.00194 11.6335 5.02987 11.7649 5.08229 11.8872C5.13472 12.0095 5.21061 12.1202 5.30563 12.213C5.40066 12.3058 5.51296 12.3789 5.63612 12.4281C5.75928 12.4774 5.89089 12.5018 6.02344 12.4999C6.15599 12.4981 6.28687 12.47 6.40863 12.4174C6.53038 12.3647 6.64061 12.2885 6.73304 12.1931L9.70679 9.20676Z" fill="#0EA6E7"/>
</svg>
