<svg width="16" height="16" viewBox="0 0 16 16" fill="none" xmlns="http://www.w3.org/2000/svg">
<path d="M5.29321 9.20676C5.2003 9.11422 5.12656 9.00413 5.07623 8.88282C5.02591 8.76152 5 8.63141 5 8.5C5 8.36859 5.02591 8.23848 5.07623 8.11718C5.12656 7.99587 5.2003 7.88578 5.29321 7.79324L8.26696 4.80693C8.35939 4.7115 8.46962 4.63529 8.59137 4.58264C8.71313 4.52999 8.84401 4.50195 8.97656 4.5001C9.10911 4.49825 9.24072 4.52264 9.36388 4.57187C9.48704 4.6211 9.59934 4.6942 9.69437 4.78702C9.78939 4.87983 9.86528 4.99053 9.91771 5.1128C9.97013 5.23506 9.99806 5.3665 9.9999 5.49961C10.0017 5.63272 9.97746 5.76488 9.92844 5.88856C9.87941 6.01225 9.80661 6.12502 9.71419 6.22045L7.39466 8.5L9.71419 10.7796C9.80661 10.875 9.87941 10.9878 9.92844 11.1114C9.97746 11.2351 10.0017 11.3673 9.9999 11.5004C9.99806 11.6335 9.97013 11.7649 9.91771 11.8872C9.86528 12.0095 9.78939 12.1202 9.69437 12.213C9.59934 12.3058 9.48704 12.3789 9.36388 12.4281C9.24072 12.4774 9.10911 12.5018 8.97656 12.4999C8.84401 12.4981 8.71313 12.47 8.59137 12.4174C8.46962 12.3647 8.35939 12.2885 8.26696 12.1931L5.29321 9.20676Z" fill="#0EA6E7"/>
</svg>
