<svg width="24" height="24" viewBox="0 0 24 24" fill="none" xmlns="http://www.w3.org/2000/svg">
<g clip-path="url(#clip0)">
<path d="M13.4525 17.303L13.1649 10.5179H16.3726V7.84275H12.7035V4.70822C13.6666 4.39064 14.3639 3.48286 14.3639 2.41477C14.3639 1.08323 13.2807 0 11.9492 0C10.6177 0 9.53447 1.08323 9.53447 2.41472C9.53447 3.52017 10.2814 4.45388 11.2969 4.73925V7.84275H7.52588V10.5179H10.7349L10.4497 17.2675C11.062 17.5297 11.5954 17.7208 11.964 17.843C12.3277 17.7284 12.851 17.5497 13.4525 17.303ZM10.941 2.41472C10.941 1.85878 11.3933 1.40653 11.9492 1.40653C12.5051 1.40653 12.9574 1.85878 12.9574 2.41472C12.9574 2.97066 12.5051 3.42295 11.9492 3.42295C11.3933 3.42295 10.941 2.97066 10.941 2.41472Z" fill="#B8D4EB"/>
<path d="M11.9533 19.2655C10.7426 18.9013 3.71073 16.5785 3.6242 11.7906H2.21631C2.23112 13.7531 2.73676 15.6121 3.72043 17.3173C4.51145 18.6885 5.61001 19.9594 6.98561 21.0946C9.3077 23.0109 11.9398 24 11.9398 24C11.9398 24 14.6044 23.0614 16.956 21.1658C18.3492 20.0428 19.4617 18.7735 20.2627 17.3933C21.2581 15.6782 21.7696 13.7936 21.7842 11.7906H20.3764C20.2907 16.6857 13.1724 18.9192 11.9533 19.2655Z" fill="#B8D4EB"/>
</g>
<defs>
<clipPath id="clip0">
<rect width="24" height="24" fill="white"/>
</clipPath>
</defs>
</svg>
