<svg width="24" height="24" viewBox="0 0 24 24" fill="none" xmlns="http://www.w3.org/2000/svg">
<path d="M1 15.7226C1 15.9514 1.1603 16.1309 1.38905 16.1309H2.01022C2.4276 15.2102 3.37787 14.5136 4.48124 14.5136C5.58466 14.5136 6.53472 15.2102 6.95231 16.1309H15.0263V12.8274H1V15.7226Z" fill="#B8D4EB"/>
<path d="M4.4814 15.3866C3.47015 15.3866 2.65039 16.2064 2.65039 17.2176C2.65039 18.2289 3.47015 19.0486 4.4814 19.0486C5.49216 19.0475 6.31127 18.2284 6.3124 17.2176C6.3124 16.2064 5.49265 15.3866 4.4814 15.3866Z" fill="#B8D4EB"/>
<path d="M23.0739 11.4818L21.3301 10.7153H15.8928V16.1309H16.9482C17.3659 15.2103 18.3159 14.5136 19.4192 14.5136C20.5226 14.5136 21.4729 15.2103 21.8902 16.1309H22.9231C23.1519 16.1309 23.3122 15.9514 23.3122 15.7226V11.8757C23.3179 11.7088 23.2244 11.5542 23.0739 11.4818Z" fill="#B8D4EB"/>
<path d="M19.5372 7.59291C19.3196 7.17564 18.8851 6.91694 18.4146 6.92441H15.8928V10.9319H21.4663L19.5372 7.59291Z" fill="#B8D4EB"/>
<path d="M13.7827 4H2.23713C1.54075 4 1 4.57329 1 5.26968V11.9609H15.0263V5.26968C15.0263 5.26773 15.0264 5.26578 15.0264 5.26383C15.032 4.57145 14.4751 4.00558 13.7827 4Z" fill="#B8D4EB"/>
<path d="M19.4193 15.3866C18.4081 15.3867 17.5883 16.2064 17.5884 17.2177C17.5884 18.2289 18.4082 19.0487 19.4194 19.0486C20.4302 19.0475 21.2493 18.2284 21.2504 17.2176V17.2175C21.2503 16.2064 20.4306 15.3866 19.4193 15.3866Z" fill="#B8D4EB"/>
</svg>
