<svg width="15" height="17" viewBox="0 0 15 17" fill="none" xmlns="http://www.w3.org/2000/svg">
<path d="M4.95536 9.5625H3.61607C3.39509 9.5625 3.21429 9.3832 3.21429 9.16406V7.83594C3.21429 7.6168 3.39509 7.4375 3.61607 7.4375H4.95536C5.17634 7.4375 5.35714 7.6168 5.35714 7.83594V9.16406C5.35714 9.3832 5.17634 9.5625 4.95536 9.5625ZM8.57143 9.16406V7.83594C8.57143 7.6168 8.39062 7.4375 8.16964 7.4375H6.83036C6.60938 7.4375 6.42857 7.6168 6.42857 7.83594V9.16406C6.42857 9.3832 6.60938 9.5625 6.83036 9.5625H8.16964C8.39062 9.5625 8.57143 9.3832 8.57143 9.16406ZM11.7857 9.16406V7.83594C11.7857 7.6168 11.6049 7.4375 11.3839 7.4375H10.0446C9.82366 7.4375 9.64286 7.6168 9.64286 7.83594V9.16406C9.64286 9.3832 9.82366 9.5625 10.0446 9.5625H11.3839C11.6049 9.5625 11.7857 9.3832 11.7857 9.16406ZM8.57143 12.3516V11.0234C8.57143 10.8043 8.39062 10.625 8.16964 10.625H6.83036C6.60938 10.625 6.42857 10.8043 6.42857 11.0234V12.3516C6.42857 12.5707 6.60938 12.75 6.83036 12.75H8.16964C8.39062 12.75 8.57143 12.5707 8.57143 12.3516ZM5.35714 12.3516V11.0234C5.35714 10.8043 5.17634 10.625 4.95536 10.625H3.61607C3.39509 10.625 3.21429 10.8043 3.21429 11.0234V12.3516C3.21429 12.5707 3.39509 12.75 3.61607 12.75H4.95536C5.17634 12.75 5.35714 12.5707 5.35714 12.3516ZM11.7857 12.3516V11.0234C11.7857 10.8043 11.6049 10.625 11.3839 10.625H10.0446C9.82366 10.625 9.64286 10.8043 9.64286 11.0234V12.3516C9.64286 12.5707 9.82366 12.75 10.0446 12.75H11.3839C11.6049 12.75 11.7857 12.5707 11.7857 12.3516ZM15 3.71875V15.4062C15 16.2861 14.2801 17 13.3929 17H1.60714C0.719866 17 0 16.2861 0 15.4062V3.71875C0 2.83887 0.719866 2.125 1.60714 2.125H3.21429V0.398438C3.21429 0.179297 3.39509 0 3.61607 0H4.95536C5.17634 0 5.35714 0.179297 5.35714 0.398438V2.125H9.64286V0.398438C9.64286 0.179297 9.82366 0 10.0446 0H11.3839C11.6049 0 11.7857 0.179297 11.7857 0.398438V2.125H13.3929C14.2801 2.125 15 2.83887 15 3.71875ZM13.3929 15.207V5.3125H1.60714V15.207C1.60714 15.3166 1.69754 15.4062 1.80804 15.4062H13.192C13.3025 15.4062 13.3929 15.3166 13.3929 15.207Z" fill="#0EA6E7"/>
</svg>
