<svg width="28" height="24" viewBox="0 0 28 24" fill="none" xmlns="http://www.w3.org/2000/svg">
<path d="M24.5 0.75H3.5C2.57205 0.751026 1.68238 1.13268 1.02622 1.81121C0.37006 2.48974 0.000992641 3.40973 0 4.36932V19.8807C0.000992641 20.8403 0.37006 21.7603 1.02622 22.4388C1.68238 23.1173 2.57205 23.499 3.5 23.5H24.5C25.428 23.499 26.3176 23.1173 26.9738 22.4388C27.6299 21.7603 27.999 20.8403 28 19.8807V4.36932C27.999 3.40973 27.6299 2.48974 26.9738 1.81121C26.3176 1.13268 25.428 0.751026 24.5 0.75ZM23.6138 6.73674L14.6138 13.9754C14.4382 14.1165 14.2223 14.1931 14 14.1931C13.7777 14.1931 13.5618 14.1165 13.3862 13.9754L4.38625 6.73674C4.28051 6.65416 4.19169 6.55068 4.12496 6.4323C4.05823 6.31392 4.01491 6.18301 3.99753 6.04717C3.98015 5.91133 3.98905 5.77327 4.02371 5.64102C4.05837 5.50877 4.1181 5.38496 4.19944 5.27679C4.28077 5.16861 4.38208 5.07823 4.49749 5.0109C4.61289 4.94357 4.74008 4.90062 4.87168 4.88456C5.00327 4.8685 5.13664 4.87964 5.26403 4.91734C5.39142 4.95504 5.5103 5.01855 5.61375 5.10417L14 11.849L22.3862 5.10417C22.596 4.94041 22.8596 4.86859 23.1201 4.90423C23.3806 4.93988 23.617 5.08013 23.7783 5.29465C23.9396 5.50917 24.0128 5.78073 23.982 6.0506C23.9512 6.32046 23.8189 6.56694 23.6138 6.73674Z" fill="#0EA6E7"/>
</svg>
