<svg width="19" height="19" viewBox="0 0 19 19" fill="none" xmlns="http://www.w3.org/2000/svg">
<circle cx="9.5" cy="9.5" r="9.5" fill="#0EA6E7"/>
<path d="M10.4023 8.11719V14H8.7793V8.11719H10.4023ZM10.2617 5.78516C10.4336 5.94922 10.5195 6.16797 10.5195 6.44141C10.5195 6.71094 10.4336 6.92773 10.2617 7.0918C10.0898 7.25586 9.85547 7.33789 9.55859 7.33789C9.28516 7.33789 9.06641 7.25586 8.90234 7.0918C8.74219 6.92773 8.66211 6.71094 8.66211 6.44141C8.66211 6.16797 8.74414 5.94922 8.9082 5.78516C9.07227 5.62109 9.28906 5.53906 9.55859 5.53906C9.85547 5.53906 10.0898 5.62109 10.2617 5.78516Z" fill="white"/>
</svg>
