<svg width="18" height="22" viewBox="0 0 18 22" fill="none" xmlns="http://www.w3.org/2000/svg">
<path d="M6.83337 9.91667H0.333374V1.25C0.333374 0.962682 0.447511 0.687131 0.650675 0.483967C0.85384 0.280803 1.12939 0.166666 1.41671 0.166666H16.5834C16.8707 0.166666 17.1462 0.280803 17.3494 0.483967C17.5526 0.687131 17.6667 0.962682 17.6667 1.25V20.75C17.6667 21.0373 17.5526 21.3129 17.3494 21.516C17.1462 21.7192 16.8707 21.8333 16.5834 21.8333H1.41671C1.12939 21.8333 0.85384 21.7192 0.650675 21.516C0.447511 21.3129 0.333374 21.0373 0.333374 20.75V12.0833H6.83337V15.3333L12.25 11L6.83337 6.66667V9.91667Z" fill="#0EA6E7"/>
</svg>
