<svg width="20" height="20" viewBox="0 0 20 20" fill="none" xmlns="http://www.w3.org/2000/svg">
<path d="M16.7864 15.7612L14.3317 13.3137C15.1237 12.3047 15.5534 11.0586 15.5518 9.77592C15.5518 8.63355 15.2131 7.51684 14.5784 6.56699C13.9438 5.61715 13.0417 4.87683 11.9863 4.43967C10.9309 4.0025 9.76951 3.88812 8.64909 4.11099C7.52868 4.33385 6.49951 4.88395 5.69173 5.69173C4.88395 6.49951 4.33385 7.52868 4.11099 8.64909C3.88812 9.76951 4.0025 10.9309 4.43967 11.9863C4.87683 13.0417 5.61715 13.9438 6.56699 14.5784C7.51684 15.2131 8.63355 15.5518 9.77592 15.5518C11.0586 15.5534 12.3047 15.1237 13.3137 14.3317L15.7612 16.7864C15.8283 16.8541 15.9082 16.9078 15.9962 16.9445C16.0841 16.9811 16.1785 17 16.2738 17C16.3691 17 16.4635 16.9811 16.5515 16.9445C16.6395 16.9078 16.7193 16.8541 16.7864 16.7864C16.8541 16.7193 16.9078 16.6395 16.9445 16.5515C16.9811 16.4635 17 16.3691 17 16.2738C17 16.1785 16.9811 16.0841 16.9445 15.9962C16.9078 15.9082 16.8541 15.8283 16.7864 15.7612ZM5.44398 9.77592C5.44398 8.91914 5.69805 8.08161 6.17404 7.36922C6.65004 6.65684 7.3266 6.1016 8.11816 5.77373C8.90972 5.44586 9.78072 5.36007 10.621 5.52722C11.4614 5.69437 12.2332 6.10694 12.8391 6.71278C13.4449 7.31861 13.8575 8.09049 14.0246 8.9308C14.1918 9.77111 14.106 10.6421 13.7781 11.4337C13.4502 12.2252 12.895 12.9018 12.1826 13.3778C11.4702 13.8538 10.6327 14.1079 9.77592 14.1079C8.62702 14.1079 7.52517 13.6515 6.71278 12.8391C5.90038 12.0267 5.44398 10.9248 5.44398 9.77592Z" fill="#0EA6E7"/>
</svg>
