<svg width="16" height="12" viewBox="0 0 16 12" fill="none" xmlns="http://www.w3.org/2000/svg">
<path d="M0.333951 0.973625C2.52989 2.83334 6.38308 6.10516 7.51558 7.12531C7.66761 7.263 7.83067 7.333 7.99995 7.333C8.16889 7.333 8.33167 7.26366 8.48336 7.12663C9.61683 6.10547 13.47 2.83334 15.666 0.973625C15.8027 0.858062 15.8235 0.654937 15.7129 0.513656C15.457 0.187187 15.0755 0 14.6666 0H1.33329C0.924451 0 0.54292 0.187188 0.287076 0.513688C0.176388 0.654938 0.197232 0.858062 0.333951 0.973625Z" fill="#647C92"/>
<path d="M15.8067 1.98152C15.6885 1.92652 15.5495 1.9457 15.4512 2.0297C13.0159 4.09414 9.90788 6.74033 8.93 7.62149C8.38116 8.11692 7.61944 8.11692 7.06931 7.62083C6.027 6.6817 2.53675 3.71458 0.548813 2.02967C0.449844 1.94567 0.310531 1.92714 0.193344 1.98148C0.0755312 2.0362 0 2.15405 0 2.28392V10.6667C0 11.4021 0.597969 12.0001 1.33334 12.0001H14.6667C15.402 12.0001 16 11.4021 16 10.6667V2.28392C16 2.15405 15.9245 2.03589 15.8067 1.98152Z" fill="#647C92"/>
</svg>
