<svg width="16" height="16" viewBox="0 0 16 16" fill="none" xmlns="http://www.w3.org/2000/svg">
<path fill-rule="evenodd" clip-rule="evenodd" d="M2.26699 0.979973C2.43099 0.815954 2.62799 0.688682 2.84493 0.6066C3.06186 0.524518 3.29377 0.489503 3.52527 0.503877C3.75677 0.518251 3.98257 0.581686 4.18768 0.689974C4.39279 0.798261 4.57254 0.948926 4.71499 1.13197L6.39599 3.29397C6.70499 3.68997 6.81399 4.20697 6.69199 4.69397L6.17899 6.74697C6.15231 6.8535 6.15367 6.96512 6.18294 7.07097C6.2122 7.17682 6.26838 7.27328 6.34599 7.35097L8.64999 9.65397C8.72768 9.73159 8.82415 9.78776 8.92999 9.81703C9.03584 9.84629 9.14746 9.84765 9.25399 9.82097L11.306 9.30797C11.5467 9.24786 11.7979 9.24327 12.0406 9.29455C12.2833 9.34583 12.5112 9.45164 12.707 9.60397L14.869 11.285C15.646 11.889 15.718 13.038 15.022 13.733L14.052 14.703C13.359 15.396 12.322 15.701 11.355 15.361C8.8814 14.4903 6.63554 13.074 4.78399 11.217C2.92663 9.36552 1.50994 7.11966 0.63899 4.64597C0.29899 3.67897 0.60399 2.64197 1.29699 1.94797L2.26699 0.978973V0.979973Z" fill="#647C92"/>
</svg>
