<svg width="20" height="20" viewBox="0 0 20 20" fill="none" xmlns="http://www.w3.org/2000/svg">
<path d="M10 13.125C11.3807 13.125 12.5 12.0057 12.5 10.625C12.5 9.24429 11.3807 8.125 10 8.125C8.61929 8.125 7.5 9.24429 7.5 10.625C7.5 12.0057 8.61929 13.125 10 13.125Z" fill="white"/>
<path d="M17.8125 5.625H14.5703C14.4531 5.625 14.3078 5.54922 14.1945 5.42969L13.1289 3.75781C12.6953 3.125 12.5 3.125 11.7969 3.125H8.20312C7.5 3.125 7.26562 3.125 6.87227 3.7582L5.80547 5.42969C5.71875 5.52422 5.59688 5.625 5.46875 5.625V5C5.46875 4.91712 5.43583 4.83763 5.37722 4.77903C5.31862 4.72042 5.23913 4.6875 5.15625 4.6875H3.59375C3.51087 4.6875 3.43138 4.72042 3.37278 4.77903C3.31417 4.83763 3.28125 4.91712 3.28125 5V5.625H2.1875C1.93886 5.625 1.7004 5.72377 1.52459 5.89959C1.34877 6.0754 1.25 6.31386 1.25 6.5625V15.9375C1.25 16.1861 1.34877 16.4246 1.52459 16.6004C1.7004 16.7762 1.93886 16.875 2.1875 16.875H17.8125C18.0611 16.875 18.2996 16.7762 18.4754 16.6004C18.6512 16.4246 18.75 16.1861 18.75 15.9375V6.5625C18.75 6.31386 18.6512 6.0754 18.4754 5.89959C18.2996 5.72377 18.0611 5.625 17.8125 5.625ZM10.1762 14.3711C9.42033 14.4066 8.67142 14.2126 8.02787 13.8146C7.38431 13.4166 6.8762 12.8333 6.57031 12.1412C6.26441 11.4491 6.17505 10.6807 6.31395 9.93684C6.45285 9.19302 6.81352 8.50862 7.34857 7.97357C7.88362 7.43852 8.56802 7.07785 9.31184 6.93895C10.0557 6.80005 10.8241 6.88941 11.5162 7.19531C12.2083 7.5012 12.7916 8.00931 13.1896 8.65287C13.5876 9.29642 13.7816 10.0453 13.7461 10.8012C13.7013 11.7335 13.3108 12.6158 12.6508 13.2758C11.9908 13.9358 11.1085 14.3263 10.1762 14.3711Z" fill="white"/>
</svg>
