<svg width="17" height="17" viewBox="0 0 17 17" fill="none" xmlns="http://www.w3.org/2000/svg">
<path fill-rule="evenodd" clip-rule="evenodd" d="M1.99976 7.45825C1.99976 4.44374 4.4435 2 7.45801 2C10.4725 2 12.9163 4.44374 12.9163 7.45825C12.9163 10.4728 10.4725 12.9165 7.45801 12.9165C4.4435 12.9165 1.99976 10.4728 1.99976 7.45825ZM7.45801 0C3.33893 0 -0.000244141 3.33917 -0.000244141 7.45825C-0.000244141 11.5773 3.33893 14.9165 7.45801 14.9165C9.11937 14.9165 10.6539 14.3733 11.8935 13.4548L15.0844 16.6689C15.4735 17.0608 16.1044 17.0608 16.4935 16.6689L16.6638 16.4973C17.0529 16.1054 17.0529 15.4699 16.6638 15.078L13.475 11.866C14.3811 10.6312 14.9163 9.10723 14.9163 7.45825C14.9163 3.33917 11.5771 0 7.45801 0Z" fill="#0EA6E7"/>
</svg>
