<svg width="16" height="16" viewBox="0 0 16 16" fill="none" xmlns="http://www.w3.org/2000/svg">
<path d="M10.7068 9.20676C10.7997 9.11422 10.8734 9.00413 10.9238 8.88282C10.9741 8.76152 11 8.63141 11 8.5C11 8.36859 10.9741 8.23848 10.9238 8.11718C10.8734 7.99587 10.7997 7.88578 10.7068 7.79324L7.73304 4.80693C7.64061 4.7115 7.53038 4.63529 7.40863 4.58264C7.28687 4.52999 7.15599 4.50195 7.02344 4.5001C6.89089 4.49825 6.75928 4.52264 6.63612 4.57187C6.51296 4.6211 6.40066 4.6942 6.30563 4.78702C6.21061 4.87983 6.13472 4.99053 6.08229 5.1128C6.02987 5.23506 6.00194 5.3665 6.0001 5.49961C5.99826 5.63272 6.02254 5.76488 6.07156 5.88856C6.12059 6.01225 6.19339 6.12502 6.28581 6.22045L8.60534 8.5L6.28581 10.7796C6.19339 10.875 6.12059 10.9878 6.07156 11.1114C6.02254 11.2351 5.99826 11.3673 6.0001 11.5004C6.00194 11.6335 6.02987 11.7649 6.08229 11.8872C6.13472 12.0095 6.21061 12.1202 6.30563 12.213C6.40066 12.3058 6.51296 12.3789 6.63612 12.4281C6.75928 12.4774 6.89089 12.5018 7.02344 12.4999C7.15599 12.4981 7.28687 12.47 7.40863 12.4174C7.53038 12.3647 7.64061 12.2885 7.73304 12.1931L10.7068 9.20676Z" fill="#0EA6E7"/>
</svg>
