<svg width="20" height="20" viewBox="0 0 20 20" fill="none" xmlns="http://www.w3.org/2000/svg">
<path d="M17.5709 3.69913C17.47 3.31413 16.9801 3 16.4811 3H3.51984C3.01995 3 2.52996 3.31413 2.42998 3.69913L2.24894 4.75H17.7511L17.5709 3.69913ZM18.4779 5.625H1.52206C1.44931 5.62505 1.37737 5.63986 1.31085 5.66848C1.24433 5.6971 1.1847 5.7389 1.13578 5.79121C1.08685 5.84351 1.04971 5.90517 1.02673 5.97223C1.00376 6.03929 0.995455 6.11027 1.00235 6.18063L1.83371 16.391C1.85027 16.5576 1.9301 16.7123 2.05765 16.8249C2.1852 16.9375 2.35132 16.9999 2.52365 17H17.4763C17.6487 16.9999 17.8148 16.9375 17.9423 16.8249C18.0699 16.7123 18.1497 16.5576 18.1663 16.391L18.9976 6.18063C19.0045 6.11027 18.9962 6.03929 18.9733 5.97223C18.9503 5.90517 18.9131 5.84351 18.8642 5.79121C18.8153 5.7389 18.7557 5.6971 18.6891 5.66848C18.6226 5.63986 18.5507 5.62505 18.4779 5.625ZM8.19903 13.5V9.125L12.1468 11.3125L8.19903 13.5Z" fill="white"/>
</svg>
